<svg width="117" height="32" viewBox="0 0 117 32" fill="none" xmlns="http://www.w3.org/2000/svg">
<rect x="0.866699" width="116.133" height="32" fill="#1E2832"/>
<path d="M35.7554 10H21.4053C20.7459 10 20.4132 10.6062 20.8804 10.9603L26.6007 15.2955V20.125C26.6007 20.3085 26.7189 20.4805 26.9174 20.5858L29.3918 21.8979C29.88 22.1568 30.5598 21.8944 30.5598 21.437V15.2955L36.2803 10.9603C36.7466 10.6069 36.4161 10 35.7554 10Z" stroke="white"/>
<path d="M49.9467 22H48.6185V10.5781H54.9779V11.75H49.9467V15.9375H54.6732V17.1016H49.9467V22ZM57.9857 13.4375V22H56.6888V13.4375H57.9857ZM57.3529 10.2344C57.5664 10.2344 57.7487 10.3047 57.8998 10.4453C58.056 10.5807 58.1342 10.7943 58.1342 11.0859C58.1342 11.3724 58.056 11.5859 57.8998 11.7266C57.7487 11.8672 57.5664 11.9375 57.3529 11.9375C57.1289 11.9375 56.9414 11.8672 56.7904 11.7266C56.6446 11.5859 56.5717 11.3724 56.5717 11.0859C56.5717 10.7943 56.6446 10.5807 56.7904 10.4453C56.9414 10.3047 57.1289 10.2344 57.3529 10.2344ZM62.0404 22H60.7357V9.84375H62.0404V22ZM67.5482 21.0938C67.7618 21.0938 67.9805 21.0755 68.2045 21.0391C68.4284 21.0026 68.6107 20.9583 68.7513 20.9062V21.9141C68.6003 21.9818 68.3894 22.0391 68.1185 22.0859C67.8529 22.1328 67.5925 22.1562 67.3373 22.1562C66.8842 22.1562 66.4727 22.0781 66.1029 21.9219C65.7331 21.7604 65.4362 21.4896 65.2123 21.1094C64.9935 20.7292 64.8842 20.2031 64.8842 19.5312V14.4531H63.6654V13.8203L64.892 13.3125L65.4076 11.4531H66.1888V13.4375H68.6967V14.4531H66.1888V19.4922C66.1888 20.0286 66.3112 20.4297 66.556 20.6953C66.806 20.9609 67.1368 21.0938 67.5482 21.0938ZM73.7826 13.2812C74.5118 13.2812 75.1368 13.4427 75.6576 13.7656C76.1784 14.0885 76.5769 14.5417 76.8529 15.125C77.1289 15.7031 77.267 16.3802 77.267 17.1562V17.9609H71.3529C71.3685 18.9661 71.6185 19.7318 72.1029 20.2578C72.5873 20.7839 73.2696 21.0469 74.1498 21.0469C74.6914 21.0469 75.1706 20.9974 75.5873 20.8984C76.0039 20.7995 76.4362 20.6536 76.8842 20.4609V21.6016C76.4519 21.7943 76.0222 21.9349 75.5951 22.0234C75.1732 22.112 74.6732 22.1562 74.0951 22.1562C73.2722 22.1562 72.5534 21.9896 71.9388 21.6562C71.3295 21.3177 70.8555 20.8229 70.517 20.1719C70.1784 19.5208 70.0092 18.724 70.0092 17.7812C70.0092 16.8594 70.1628 16.0625 70.4701 15.3906C70.7826 14.7135 71.2201 14.1927 71.7826 13.8281C72.3503 13.4635 73.017 13.2812 73.7826 13.2812ZM73.767 14.3438C73.0743 14.3438 72.5222 14.5703 72.1107 15.0234C71.6993 15.4766 71.4545 16.1094 71.3763 16.9219H75.9076C75.9024 16.4115 75.8217 15.9635 75.6654 15.5781C75.5144 15.1875 75.2826 14.8854 74.9701 14.6719C74.6576 14.4531 74.2566 14.3438 73.767 14.3438ZM83.3607 13.2812C83.5326 13.2812 83.7123 13.2917 83.8998 13.3125C84.0873 13.3281 84.2539 13.3516 84.3998 13.3828L84.2357 14.5859C84.0951 14.5495 83.9388 14.5208 83.767 14.5C83.5951 14.4792 83.4336 14.4688 83.2826 14.4688C82.9388 14.4688 82.6133 14.5391 82.306 14.6797C82.0039 14.8151 81.7383 15.013 81.5092 15.2734C81.28 15.5286 81.1003 15.8385 80.9701 16.2031C80.8399 16.5625 80.7748 16.9635 80.7748 17.4062V22H79.4701V13.4375H80.5482L80.6888 15.0156H80.7435C80.9206 14.6979 81.1342 14.4089 81.3842 14.1484C81.6342 13.8828 81.9232 13.6719 82.2513 13.5156C82.5847 13.3594 82.9545 13.2812 83.3607 13.2812Z" fill="white"/>
</svg>
